<svg width="233" height="42" viewBox="0 0 233 42" fill="none" xmlns="http://www.w3.org/2000/svg">
<path d="M55.144 10.022V11.798H50.584V26.75H48.4V11.798H43.816V10.022H55.144ZM60.0164 11.798V17.39H66.1124V19.19H60.0164V24.95H66.8324V26.75H57.8324V9.998H66.8324V11.798H60.0164ZM75.4411 26.918C74.3371 26.918 73.3451 26.726 72.4651 26.342C71.6011 25.942 70.9211 25.398 70.4251 24.71C69.9291 24.006 69.6731 23.198 69.6571 22.286H71.9851C72.0651 23.07 72.3851 23.734 72.9451 24.278C73.5211 24.806 74.3531 25.07 75.4411 25.07C76.4811 25.07 77.2971 24.814 77.8891 24.302C78.4971 23.774 78.8011 23.102 78.8011 22.286C78.8011 21.646 78.6251 21.126 78.2731 20.726C77.9211 20.326 77.4811 20.022 76.9531 19.814C76.4251 19.606 75.7131 19.382 74.8171 19.142C73.7131 18.854 72.8251 18.566 72.1531 18.278C71.4971 17.99 70.9291 17.542 70.4491 16.934C69.9851 16.31 69.7531 15.478 69.7531 14.438C69.7531 13.526 69.9851 12.718 70.4491 12.014C70.9131 11.31 71.5611 10.766 72.3931 10.382C73.2411 9.998 74.2091 9.806 75.2971 9.806C76.8651 9.806 78.1451 10.198 79.1371 10.982C80.1451 11.766 80.7131 12.806 80.8411 14.102H78.4411C78.3611 13.462 78.0251 12.902 77.4331 12.422C76.8411 11.926 76.0571 11.678 75.0811 11.678C74.1691 11.678 73.4251 11.918 72.8491 12.398C72.2731 12.862 71.9851 13.518 71.9851 14.366C71.9851 14.974 72.1531 15.47 72.4891 15.854C72.8411 16.238 73.2651 16.534 73.7611 16.742C74.2731 16.934 74.9851 17.158 75.8971 17.414C77.0011 17.718 77.8891 18.022 78.5611 18.326C79.2331 18.614 79.8091 19.07 80.2891 19.694C80.7691 20.302 81.0091 21.134 81.0091 22.19C81.0091 23.006 80.7931 23.774 80.3611 24.494C79.9291 25.214 79.2891 25.798 78.4411 26.246C77.5931 26.694 76.5931 26.918 75.4411 26.918ZM94.519 10.022V11.798H89.959V26.75H87.775V11.798H83.191V10.022H94.519Z" fill="#F5F6FA"/>
<path fill-rule="evenodd" clip-rule="evenodd" d="M11.5366 28.7592C13.3659 28.7592 15.1965 28.7592 17.0268 28.7592C15.4073 27.3003 15.1533 25.6881 15.0338 24.1724C14.7917 21.0744 16.5154 19.1527 18.4447 17.0565C15.3854 19.4397 14.9544 20.3278 14.2814 20.3278C13.6084 20.3278 13.1785 19.4397 10.1182 17.0565C12.0475 19.1527 13.7709 21.0747 13.5291 24.1724C13.4096 25.6883 13.1556 27.3003 11.5369 28.7592H11.5366Z" fill="white"/>
<path d="M7.44954 12.3726C8.51032 10.4643 5.23281 8.96122 6.90315 7.1411C7.99948 7.84888 8.78461 8.92631 8.58416 10.3402C8.96783 8.77239 8.30549 7.75604 7.34781 6.90185C10.3628 6.49464 11.0158 10.7925 7.44926 12.3726H7.44954Z" fill="#6B9E4D"/>
<path d="M26.3293 14.91C24.9784 15.6893 23.5851 13.8716 22.3493 15.0041C22.9712 15.5965 23.8432 15.9746 24.8912 15.7434C23.741 16.0958 22.9249 15.7836 22.2052 15.287C22.1363 17.1017 25.4258 17.1456 26.3293 14.9098V14.91Z" fill="#6B9E4D"/>
<path d="M10.248 10.1727C10.6043 11.9307 7.5636 12.4718 8.43651 14.2829C9.50686 13.938 10.4227 13.2307 10.6314 12.0461C10.5307 13.3909 9.72919 14.0752 8.73404 14.568C11.0571 15.5186 12.7146 12.1814 10.2482 10.1727H10.248Z" fill="#94C957"/>
<path d="M19.7872 10.2155C18.1117 10.6968 18.8962 12.9969 16.9595 13.1501C16.8182 12.276 17.0558 11.3578 18.0006 10.7269C16.8718 11.3503 16.609 12.1825 16.5906 13.065C14.8046 11.8666 17.0219 9.35957 19.7872 10.2155Z" fill="#94C957"/>
<path d="M5.83446 8.92978C5.52462 9.74131 6.92259 10.1885 6.36335 10.9908C5.88588 10.7601 5.50712 10.3686 5.50302 9.79488C5.44423 10.4367 5.76856 10.8117 6.20146 11.1086C5.02445 11.4124 4.50705 9.7287 5.83446 8.92978Z" fill="#94C957"/>
<path d="M23.1086 20.7427C22.886 18.9206 19.7215 19.1703 19.9864 17.1652C21.1531 17.2309 22.2855 17.6915 22.8751 18.8024C22.3372 17.5036 21.3245 17.0402 20.1874 16.8106C22.1624 15.2809 24.8766 18.1363 23.1084 20.7427H23.1086Z" fill="#94C957"/>
<path d="M15.6676 9.35625C14.629 9.53101 14.2926 8.12126 13.2266 8.536C13.4364 9.0312 13.8603 9.45296 14.5623 9.54289C13.7643 9.50386 13.3571 9.13567 13.0598 8.6744C12.5096 9.76153 14.4914 10.5115 15.6676 9.35625Z" fill="#6B9E4D"/>
<path d="M12.194 9.06308C11.8459 9.91 13.3035 10.4098 12.6944 11.2432C12.1956 10.9901 11.8098 10.5686 11.8224 9.96429C11.7395 10.6408 12.0726 11.0408 12.5189 11.3617C11.2716 11.6564 10.7742 9.87364 12.194 9.06308Z" fill="#94C957"/>
<path d="M24.7121 5.71521C25.9049 7.65556 22.5779 9.34163 24.4017 11.1622C25.5046 10.3859 26.2665 9.24007 25.9892 7.77966C26.4642 9.39205 25.824 10.4724 24.8748 11.3945C28.0216 11.703 28.4895 7.21683 24.7121 5.71497V5.71521Z" fill="#94C957"/>
<path d="M6.23904 21.6081C7.68022 20.5331 9.58875 22.4648 10.8393 20.9959C10.0258 20.3882 8.95403 20.0607 7.77292 20.4607C9.05057 19.9087 10.0474 20.1637 10.9613 20.6495C10.7477 18.5392 6.92764 18.9028 6.23877 21.6081H6.23904Z" fill="#6B9E4D"/>
<path d="M13.726 2.41449C13.8925 4.00773 16.6595 3.82788 16.3986 5.57674C15.3818 5.50571 14.4014 5.0905 13.9023 4.11245C14.3514 5.2529 15.2284 5.67054 16.22 5.88409C14.4717 7.19713 12.1418 4.67358 13.726 2.41473V2.41449Z" fill="#6B9E4D"/>
<path d="M16.8702 3.32404C15.8086 3.10104 16.1657 1.64814 14.9633 1.64062C14.9258 2.18334 15.1221 2.73963 15.7385 3.08722C15.01 2.75223 14.8005 2.25097 14.7409 1.70801C13.7059 2.52342 15.2116 3.97316 16.8702 3.32404Z" fill="#94C957"/>
<path d="M20.2582 22.1963C18.9302 20.9816 20.9949 19.1363 19.2305 18.1207C18.5952 18.8937 18.2977 19.8776 18.8394 20.9034C18.1178 19.8022 18.3412 18.8891 18.8277 18.0359C16.4373 18.3796 17.1234 21.7723 20.2579 22.1963H20.2582Z" fill="#94C957"/>
<path d="M21.3694 6.47512C22.5497 6.30157 22.8872 7.90524 24.1087 7.46142C23.8861 6.89616 23.4199 6.40628 22.6274 6.28848C23.5287 6.35005 23.9816 6.77981 24.3024 7.30798C24.9584 6.0919 22.7368 5.19457 21.3691 6.47512H21.3694Z" fill="#6B9E4D"/>
<path d="M7.15858 6.14806C5.93727 6.2981 6.16152 7.96649 4.80676 7.86177C4.82918 7.2444 5.12015 6.63939 5.85551 6.3078C4.99408 6.61418 4.69819 7.15666 4.56446 7.76215C3.50094 6.74532 5.37283 5.26018 7.15858 6.14782V6.14806Z" fill="#94C957"/>
<path d="M21.4505 3.13379C19.6333 3.2002 19.6921 5.6789 17.7212 5.35482C17.8541 4.45215 18.377 3.59578 19.5121 3.20335C18.1973 3.54512 17.6739 4.30527 17.3796 5.18006C15.9795 3.54973 18.9682 1.60405 21.4502 3.13379H21.4505Z" fill="#6B9E4D"/>
<path d="M11.0423 15.5162C9.73242 16.0614 8.74492 14.2953 7.4908 15.1657C7.96007 15.7596 8.68203 16.1923 9.64737 16.1004C8.57565 16.2885 7.89252 15.922 7.32344 15.4006C7.01196 17.0077 9.92795 17.4033 11.0423 15.5162Z" fill="#6B9E4D"/>
<path d="M20.4299 9.37967C20.9331 10.6365 18.7708 11.3612 19.6609 12.6001C20.4017 12.23 20.9782 11.6106 20.9683 10.7169C21.078 11.7185 20.583 12.3073 19.9174 12.7758C21.7595 13.2242 22.52 10.5936 20.4299 9.37967Z" fill="#6B9E4D"/>
<path d="M14.8569 7.07784C13.1294 6.66529 12.3582 9.0068 10.6143 8.18436C11.0434 7.37041 11.8189 6.70577 13.0175 6.63402C11.666 6.60809 10.9222 7.18789 10.3553 7.92961C9.58331 6.03386 13.0389 4.99182 14.8569 7.07784Z" fill="#94C957"/>
<path d="M20.7625 4.46622C19.7026 6.64532 15.8932 5.26902 15.3618 7.83983C16.8312 8.15276 18.4299 7.96442 19.6389 6.78809C18.4151 8.21287 16.9638 8.44896 15.4542 8.3491C17.243 10.9095 21.8302 8.28898 20.7625 4.46622Z" fill="#94C957"/>
<path d="M22.1423 10.0671C22.3766 8.96586 20.4741 8.61367 21.0293 7.48146C21.7014 7.70228 22.2716 8.15118 22.3947 8.89339C22.3394 8.0489 21.8387 7.61744 21.2177 7.30451C22.6832 6.71816 23.7008 8.81801 22.1423 10.0671Z" fill="#94C957"/>
<path d="M7.70021 18.556C5.98256 17.8943 7.07725 15.5348 5.04894 15.1998C4.79981 16.1098 4.94475 17.1009 5.86989 17.8528C4.74867 17.0917 4.56627 16.1907 4.64722 15.2561C2.62438 16.3594 4.68003 19.2104 7.70021 18.556Z" fill="#6B9E4D"/>
<path d="M4.22213 10.3664C4.42012 12.2551 7.70174 12.0423 7.39135 14.1145C6.18618 14.0292 5.02394 13.5393 4.43024 12.379C4.96405 13.7303 6.0035 14.2265 7.18051 14.4795C5.10653 16.0364 2.34505 13.0434 4.22213 10.3664Z" fill="#94C957"/>
<path d="M8.7817 6.26636C9.6423 4.88521 12.0625 6.01185 12.602 4.34249C11.6506 4.05114 10.58 4.0858 9.69508 4.79383C10.6074 3.92073 11.5839 3.84753 12.5761 4.00024C11.5782 2.20363 8.3529 3.67543 8.7817 6.26636Z" fill="#6B9E4D"/>
<path d="M3.51137 6.35706C2.79871 7.59762 4.92438 8.60524 3.81574 9.77963C3.10719 9.30939 2.604 8.59918 2.74949 7.67664C2.48204 8.69735 2.90591 9.36659 3.52313 9.93379C1.5506 10.1767 1.16447 7.36225 3.51137 6.35706Z" fill="#6B9E4D"/>
<path d="M2.46806 17.7197C1.85659 16.2186 4.43949 15.3406 3.36531 13.8618C2.48201 14.3078 1.79752 15.0524 1.81393 16.1211C1.67419 14.9251 2.26433 14.2171 3.05547 13.6497C0.851048 13.1249 -0.042098 16.2806 2.46806 17.7194V17.7197Z" fill="#94C957"/>
<path d="M4.80281 20.9499C5.15175 20.0315 6.75373 20.4784 6.87405 19.4158C6.26367 19.3324 5.62048 19.456 5.1739 19.9692C5.61692 19.3552 6.19996 19.2163 6.81772 19.2131C5.99212 18.2235 4.22415 19.424 4.80254 20.9499H4.80281Z" fill="#94C957"/>
<path d="M4.6433 19.306C3.80759 18.938 4.42043 17.7881 3.41899 17.5758C3.26776 18.0232 3.31233 18.5206 3.75125 18.9145C3.21498 18.5116 3.15017 18.0576 3.21744 17.5935C2.17772 18.0989 3.12036 19.5636 4.6433 19.3057V19.306Z" fill="#94C957"/>
<path d="M0.407133 13.8916C0.856168 13.0079 2.39935 13.594 2.63863 12.5478C2.04029 12.4092 1.38615 12.4778 0.884609 12.9492C1.39463 12.3769 1.99079 12.2899 2.60472 12.3401C1.89371 11.283 0.000759721 12.3226 0.407133 13.8916Z" fill="#6B9E4D"/>
<path d="M0.260254 11.0274C1.25267 10.6631 1.91009 12.005 2.87707 11.3983C2.55383 10.9426 2.03588 10.6011 1.31803 10.6379C2.11765 10.5346 2.60989 10.8284 3.01161 11.2315C3.30723 10.0496 1.16215 9.66373 0.260527 11.0274H0.260254Z" fill="#94C957"/>
<path d="M27.1915 14.3038C26.2915 13.7615 25.3229 14.972 24.5055 14.192C24.9343 13.7998 25.5285 13.5543 26.2322 13.7232C25.4626 13.4724 24.9053 13.6731 24.4122 13.9998C24.3942 12.7735 26.6164 12.783 27.1915 14.3038Z" fill="#94C957"/>
<path d="M24.6699 19.469C25.0478 18.5506 23.4636 18.0079 24.1257 17.1011C24.6682 17.3762 25.0875 17.8348 25.0746 18.4905C25.1635 17.7555 24.8031 17.3204 24.316 16.9719C25.6724 16.6514 26.2125 18.5901 24.6699 19.4688V19.469Z" fill="#6B9E4D"/>
<path d="M27.1316 15.1937C27.0072 16.0278 25.5567 15.8841 25.6557 16.8083C26.192 16.7891 26.7165 16.5868 27.0012 16.0831C26.7397 16.6738 26.2688 16.8783 25.7432 16.9729C26.6336 17.6945 27.9132 16.4071 27.1319 15.194L27.1316 15.1937Z" fill="#94C957"/>
<path d="M22.3562 21.352C21.6179 21.0274 22.1593 20.0111 21.2733 19.823C21.1412 20.2188 21.18 20.6583 21.5686 21.0061C21.0942 20.65 21.0373 20.2494 21.0964 19.8402C20.177 20.2855 21.0108 21.5796 22.356 21.352H22.3562Z" fill="#6B9E4D"/>
<path d="M27.6874 13.7162C27.3155 12.7948 25.7067 13.2745 25.562 12.2027C26.177 12.1074 26.8306 12.2223 27.2909 12.7328C26.8304 12.1205 26.2383 11.9894 25.6137 11.9964C26.4262 10.9829 28.2384 12.1665 27.6874 13.7162Z" fill="#6B9E4D"/>
<path d="M16.9066 15.655C17.3723 15.0514 16.3388 14.4004 17.0064 13.8528C17.3414 14.1393 17.5498 14.5392 17.4037 15.0117C17.62 14.4961 17.4491 14.1204 17.1702 13.7898C18.2189 13.7808 18.2064 15.2703 16.9066 15.655Z" fill="#94C957"/>
<path d="M8.7259 3.99964C8.8867 3.2824 10.1348 3.48043 10.1091 2.67399C9.64257 2.66309 9.17384 2.81143 8.89655 3.23513C9.16044 2.73702 9.58213 2.58358 10.0443 2.5271C9.31796 1.85665 8.12591 2.90766 8.7259 3.99988V3.99964Z" fill="#94C957"/>
<path d="M3.55545 6.05471C4.20111 5.35493 5.43472 6.21348 5.93408 5.32075C5.43226 5.06915 4.82461 4.98892 4.2424 5.30815C4.8577 4.89875 5.41968 4.94771 5.9606 5.12538C5.60837 4.01959 3.61917 4.55407 3.55518 6.05447L3.55545 6.05471Z" fill="#94C957"/>
<path d="M13.3062 2.37389C12.4019 2.09829 11.8982 3.32141 11.0023 2.8308C11.2621 2.4105 11.7023 2.08084 12.3428 2.08011C11.6252 2.02436 11.2052 2.30893 10.8735 2.68707C10.5385 1.65302 12.4202 1.20556 13.3062 2.37414V2.37389Z" fill="#6B9E4D"/>
<path d="M18.3762 2.368C17.6346 2.47635 17.4232 1.46945 16.6556 1.74675C16.7958 2.10282 17.0887 2.41042 17.5859 2.48435C17.0206 2.44508 16.736 2.17554 16.535 1.84516C16.1226 2.60772 17.5175 3.1708 18.3762 2.368Z" fill="#94C957"/>
<path d="M23.703 5.69214C23.2304 4.77008 21.615 5.38649 21.3643 4.28918C21.9897 4.14568 22.675 4.21549 23.2014 4.70803C22.6662 4.10666 22.0425 4.01818 21.3987 4.07199C22.139 2.96402 24.1244 4.05091 23.703 5.69214Z" fill="#94C957"/>
<path d="M8.12752 2.61713C7.31532 3.61166 9.01602 4.75017 7.86691 5.64048C7.31997 5.14406 6.99126 4.46343 7.26036 3.67662C6.86957 4.53517 7.13757 5.17 7.58715 5.73938C5.8293 5.71223 5.92556 3.21171 8.12752 2.61713Z" fill="#6B9E4D"/>
<path d="M17.9818 23.2349C17.6334 22.3172 16.0325 22.7654 15.9116 21.7032C16.5215 21.6184 17.1649 21.7427 17.6112 22.2566C17.1682 21.6416 16.5846 21.5032 15.9674 21.4998C16.793 20.5085 18.5607 21.7105 17.9818 23.2349Z" fill="#6B9E4D"/>
<path d="M10.5811 23.2349C10.9295 22.3172 12.5306 22.7654 12.6518 21.7032C12.0411 21.6184 11.3979 21.7427 10.9508 22.2566C11.3955 21.6416 11.978 21.5032 12.5949 21.4998C11.7696 20.5085 10.0027 21.7105 10.5808 23.2349H10.5811Z" fill="#94C957"/>
<path d="M10.7502 19.0559C9.97684 18.2155 8.49546 19.244 7.89793 18.1724C8.5012 17.872 9.22972 17.7756 9.92734 18.1578C9.18843 17.6679 8.51597 17.7271 7.86621 17.9387C8.29009 16.6128 10.6805 17.2544 10.7502 19.0561V19.0559Z" fill="#94C957"/>
<path d="M15.1617 17.4797C14.778 18.3336 13.2865 17.8374 13.1123 18.838C13.6852 18.9447 14.3019 18.8562 14.7548 18.3899C14.2986 18.9522 13.7396 19.0581 13.1547 19.0332C13.878 20.0073 15.6219 18.95 15.1617 17.4794V17.4797Z" fill="#94C957"/>
<path d="M13.1618 17.5315C12.3181 17.4591 12.4196 16.3084 11.4934 16.4136C11.5278 16.8373 11.7466 17.2458 12.2632 17.4542C11.661 17.2654 11.4409 16.8986 11.329 16.4868C10.6311 17.213 11.9635 18.1867 13.1618 17.5315Z" fill="#94C957"/>
<path d="M23.063 13.5623C21.065 13.8033 21.4197 16.5331 19.2073 16.3547C19.2483 15.3456 19.7253 14.3559 20.934 13.8168C19.5204 14.3149 19.0323 15.2002 18.8094 16.1918C17.0732 14.5234 20.1475 12.1009 23.063 13.5623Z" fill="#94C957"/>
<path d="M23.4288 13.8489C23.6615 12.7478 21.7592 12.3968 22.3152 11.2634C22.9857 11.4856 23.5567 11.9338 23.6803 12.6753C23.6251 11.8315 23.1236 11.4001 22.5031 11.0871C23.9683 10.502 24.9862 12.6016 23.4288 13.8489Z" fill="#6B9E4D"/>
<path d="M15.9082 17.4842C16.6723 17.2096 16.2186 16.16 17.1167 16.0313C17.2157 16.4344 17.1402 16.8702 16.7226 17.1924C17.225 16.8678 17.3171 16.4715 17.2917 16.0599C18.1709 16.5658 17.2296 17.8008 15.9082 17.4842Z" fill="#6B9E4D"/>
<path d="M15.2826 10.3932C13.7061 12.5655 17.4239 14.7817 15.1265 16.7693C13.9148 15.783 13.1348 14.3885 13.5997 12.7046C12.8906 14.5509 13.533 15.8562 14.5519 17.0039C10.8522 17.1273 10.7351 11.8616 15.2829 10.3932H15.2826Z" fill="#6B9E4D"/>
<path fill-rule="evenodd" clip-rule="evenodd" d="M5.12402 28.7609C7.96617 28.1944 10.9494 27.8919 14.0251 27.8919C17.1011 27.8919 20.0841 28.1944 22.9271 28.7609H5.12402Z" fill="white"/>
</svg>
